<svg width="580" height="659" viewBox="0 0 580 659" fill="none" xmlns="http://www.w3.org/2000/svg">
<rect y="29" width="532" height="602" fill="#070707"/>
<path d="M281.477 151.421C295.183 152.718 306.852 155.867 316.483 160.868C326.3 165.869 332.968 169.388 336.487 171.425C340.192 173.463 343.248 174.481 345.656 174.481C348.249 174.481 350.379 173.926 352.046 172.814C353.713 171.703 355.195 170.407 356.491 168.925C357.788 167.443 358.899 165.869 359.825 164.202C360.751 162.349 361.677 160.682 362.604 159.201H388.164V289.504H368.16C364.085 285.244 359.455 275.983 354.269 261.721C349.082 247.273 344.637 235.79 340.933 227.27C337.413 218.749 332.968 210.785 327.597 203.376C315.743 186.891 300.369 177.167 281.477 174.204V151.421ZM225.077 552.611C214.149 547.61 206.462 544.091 202.017 542.053C197.571 539.831 192.941 538.719 188.125 538.719C183.494 538.719 178.308 543.813 172.566 554H146.728V416.751H165.898C169.973 421.011 173.585 426.846 176.734 434.254C180.068 441.663 183.494 449.72 187.014 458.426C190.718 466.946 194.7 475.744 198.96 484.82C203.221 493.896 208.407 502.323 214.519 510.103C228.225 527.328 245.636 537.052 266.751 539.275V562.057C250.082 560.575 236.19 557.427 225.077 552.611ZM289.812 538.997C309.815 536.589 325.281 528.439 336.209 514.548C345.841 502.138 350.657 487.969 350.657 472.04C350.657 455.925 347.786 443.052 342.044 433.421C336.302 423.604 328.708 414.991 319.262 407.583C310.001 399.988 299.35 393.135 287.311 387.023C275.272 380.911 262.954 374.891 250.359 368.964C237.95 362.852 225.725 356.554 213.686 350.071C201.831 343.403 191.274 335.809 182.013 327.289C161.083 308.026 150.618 284.596 150.618 256.998C150.618 229.029 160.157 205.136 179.234 185.317C199.609 164.572 226.003 153.088 258.417 150.866V173.926C235.449 176.889 219.983 188.651 212.019 209.21C209.425 215.878 208.129 224.213 208.129 234.215C208.129 244.217 211.092 253.571 217.02 262.276C222.947 270.982 230.726 278.761 240.357 285.614C249.989 292.467 260.917 298.765 273.142 304.507C285.551 310.249 298.146 316.083 310.927 322.01C323.892 327.937 336.487 334.327 348.712 341.181C361.122 348.034 372.142 355.998 381.774 365.074C403.26 385.634 414.002 410.453 414.002 439.533C414.002 471.021 402.611 498.434 379.829 521.771C355.936 546.591 325.93 560.112 289.812 562.335V538.997Z" fill="#FFFEFE"/>
</svg>
