<svg width="3540" height="1000" viewBox="0 0 3540 744" fill="none" xmlns="http://www.w3.org/2000/svg">
<path d="M570.159 472.28V429.033C608.318 442.601 649.53 449.385 693.795 449.385C756.376 449.385 787.667 426.489 787.667 380.698C787.667 341.691 764.601 322.188 718.471 322.188H671.663C595.514 322.188 557.439 289.116 557.439 222.974C557.439 153.439 606.198 118.672 703.716 118.672C746.115 118.672 785.547 123.76 822.01 133.936V177.183C785.547 163.615 746.115 156.831 703.716 156.831C637.574 156.831 604.502 178.879 604.502 222.974C604.502 261.981 626.889 281.484 671.663 281.484H718.471C795.977 281.484 834.729 314.556 834.729 380.698C834.729 451.929 787.751 487.544 693.795 487.544C649.53 487.544 608.318 482.456 570.159 472.28ZM915.373 485H866.529L1020.95 121.216H1073.1L1228.28 485H1176.13L1129.06 370.522H1008.74L1021.71 332.363H1113.29L1045.37 167.516L915.373 485ZM1324.95 121.216V446.841H1515.23V485H1277.88V121.216H1324.95ZM1568.91 344.574V121.216H1615.98V344.574C1615.98 414.448 1650.74 449.385 1720.28 449.385C1789.81 449.385 1824.58 414.448 1824.58 344.574V121.216H1871.64V344.574C1871.64 439.887 1821.19 487.544 1720.28 487.544C1619.37 487.544 1568.91 439.887 1568.91 344.574ZM2201.08 121.216V159.375H2086.6V485H2039.54V159.375H1925.06V121.216H2201.08ZM2495.16 121.216V159.375H2304.37V281.484H2486.26V319.644H2304.37V446.841H2498.98V485H2257.3V121.216H2495.16ZM2570.21 485V121.216H2629.99L2763.55 424.708L2894.56 121.216H2951.8V485H2909.83V186.595L2780.59 485H2743.45L2612.18 186.595V485H2570.21Z" fill="black"/>
<path d="M560.123 675V581.436H600.035C617.832 581.436 626.73 588.698 626.73 603.224C626.73 613.867 620.929 621.479 609.326 626.059C621.714 628.37 627.908 635.459 627.908 647.323C627.908 665.774 618.159 675 598.661 675H560.123ZM597.941 665.186C609.108 665.186 614.691 659.515 614.691 648.174C614.691 637.138 607.211 631.62 592.249 631.62H587.015V623.703C604.899 621.304 613.841 614.848 613.841 604.336C613.841 595.612 608.868 591.25 598.923 591.25H572.228V665.186H597.941ZM642.564 640.649C642.564 617.313 653.906 605.645 676.588 605.645C699.27 605.645 710.611 617.313 710.611 640.649C710.611 663.986 699.27 675.654 676.588 675.654C653.993 675.654 642.652 663.986 642.564 640.649ZM654.669 640.388C654.669 657.356 661.975 665.84 676.588 665.84C691.201 665.84 698.507 657.356 698.507 640.388C698.507 623.769 691.201 615.459 676.588 615.459C661.975 615.459 654.669 623.769 654.669 640.388ZM723.697 609.57C732.421 606.953 740.055 605.645 746.598 605.645C764.7 605.645 773.751 612.013 773.751 624.75C773.751 631.467 770.741 636.549 764.722 639.995C770.741 643.267 773.751 648.174 773.751 654.717C773.751 668.675 764.7 675.654 746.598 675.654C740.055 675.654 732.421 674.346 723.697 671.729V661.26C732.421 664.313 740.055 665.84 746.598 665.84C756.63 665.84 761.646 662.132 761.646 654.717C761.646 648.174 758.331 644.902 751.701 644.902H730.24V635.088H751.505C758.266 635.088 761.646 631.642 761.646 624.75C761.646 618.556 756.63 615.459 746.598 615.459C740.055 615.459 732.421 616.986 723.697 620.039V609.57ZM802.278 606.299V664.989H823.085C830.849 664.989 834.731 661.303 834.731 653.932C834.731 647.956 830.762 644.968 822.823 644.968H811.177V635.153H823.412C839.115 635.153 846.967 641.609 846.967 654.521C846.967 668.174 839.377 675 824.197 675H790.174V606.299H802.278ZM866.596 675V606.299H881.972L905.199 660.802L927.772 606.299H942.494V675H931.698V622.46L909.583 675H900.03L877.392 622.46V675H866.596ZM1011.2 675V621.871L974.228 675H962.123V606.299H973.573V659.428L1010.54 606.299H1022.65V675H1011.2ZM1093.05 606.299V616.113H1068.84V675H1056.73V616.113H1032.53V606.299H1093.05ZM1131.26 606.299C1150.8 606.299 1160.57 615.961 1160.57 635.284C1160.57 638.032 1160.38 640.977 1159.98 644.117H1111.76C1111.76 658.163 1119.96 665.186 1136.36 665.186C1144.17 665.186 1151.11 664.313 1157.17 662.568V672.383C1151.11 674.128 1143.73 675 1135.05 675C1111.46 675 1099.66 663.288 1099.66 639.864C1099.66 617.487 1110.19 606.299 1131.26 606.299ZM1111.76 634.041H1148.92C1148.66 622.002 1142.77 615.982 1131.26 615.982C1119.05 615.982 1112.55 622.002 1111.76 634.041ZM1210.89 675V581.436H1288.42V675H1276.32V591.25H1222.99V675H1210.89ZM1306.15 640.649C1306.15 617.313 1317.49 605.645 1340.18 605.645C1362.86 605.645 1374.2 617.313 1374.2 640.649C1374.2 663.986 1362.86 675.654 1340.18 675.654C1317.58 675.654 1306.24 663.986 1306.15 640.649ZM1318.26 640.388C1318.26 657.356 1325.56 665.84 1340.18 665.84C1354.79 665.84 1362.09 657.356 1362.09 640.388C1362.09 623.769 1354.79 615.459 1340.18 615.459C1325.56 615.459 1318.26 623.769 1318.26 640.388ZM1410.45 665.186H1445.06V616.113H1420.85C1420.85 640.497 1417.38 656.854 1410.45 665.186ZM1380.74 699.863V665.186H1392.78C1403.42 665.186 1408.75 648.828 1408.75 616.113V606.299H1457.16V665.186H1469.27V699.863H1457.16V675H1392.78V699.863H1380.74ZM1576.77 675C1561.98 651.445 1552.67 638.01 1548.83 634.695C1544.99 631.337 1541.37 629.657 1537.97 629.657V620.955C1544.95 620.955 1551.99 614.368 1559.1 601.195C1566.26 588.022 1573.93 581.436 1582.13 581.436H1589.14V591.904H1583.97C1579.26 591.904 1573.98 597.073 1568.13 607.411C1562.29 617.705 1556.86 623.703 1551.84 625.404C1555.11 625.971 1558.71 628.436 1562.64 632.798C1566.56 637.116 1576.16 651.184 1591.43 675H1576.77ZM1530.12 581.436V675H1518.01V581.436H1530.12ZM1599.67 640.649C1599.67 617.313 1611.01 605.645 1633.69 605.645C1656.38 605.645 1667.72 617.313 1667.72 640.649C1667.72 663.986 1656.38 675.654 1633.69 675.654C1611.1 675.654 1599.76 663.986 1599.67 640.649ZM1611.77 640.388C1611.77 657.356 1619.08 665.84 1633.69 665.84C1648.31 665.84 1655.61 657.356 1655.61 640.388C1655.61 623.769 1648.31 615.459 1633.69 615.459C1619.08 615.459 1611.77 623.769 1611.77 640.388ZM1684.07 675V606.299H1696.18V635.088H1732.49V606.299H1744.6V675H1732.49V644.902H1696.18V675H1684.07ZM1815 606.299V616.113H1790.79V675H1778.69V616.113H1754.48V606.299H1815ZM1836.98 660.998C1841.74 663.354 1847.04 664.531 1852.88 664.531C1868.46 664.531 1876.24 655.96 1876.24 638.817C1876.24 623.856 1868.5 616.375 1853.01 616.375C1846.91 616.375 1841.56 616.898 1836.98 617.945V660.998ZM1824.88 609.112C1834 607.237 1843.42 606.299 1853.14 606.299C1876.48 606.299 1888.15 617.182 1888.15 638.948C1888.15 662.983 1876.42 675 1852.95 675C1847.45 675 1842.13 673.91 1836.98 671.729V699.863H1824.88V609.112ZM1901.3 640.649C1901.3 617.313 1912.64 605.645 1935.32 605.645C1958.01 605.645 1969.35 617.313 1969.35 640.649C1969.35 663.986 1958.01 675.654 1935.32 675.654C1912.73 675.654 1901.39 663.986 1901.3 640.649ZM1913.41 640.388C1913.41 657.356 1920.71 665.84 1935.32 665.84C1949.94 665.84 1957.24 657.356 1957.24 640.388C1957.24 623.769 1949.94 615.459 1935.32 615.459C1920.71 615.459 1913.41 623.769 1913.41 640.388ZM1975.89 665.186C1986.23 665.186 1991.4 659.297 1991.4 647.52V606.299H2043.74V675H2031.64V616.113H2003.5V647.52C2003.5 665.84 1994.3 675 1975.89 675V665.186ZM2075.54 606.299V664.989H2096.35C2104.11 664.989 2107.99 661.303 2107.99 653.932C2107.99 647.956 2104.02 644.968 2096.08 644.968H2084.44V635.153H2096.67C2112.38 635.153 2120.23 641.609 2120.23 654.521C2120.23 668.174 2112.64 675 2097.46 675H2063.44V606.299H2075.54ZM2173.88 675V581.436H2213.79C2231.59 581.436 2240.49 588.698 2240.49 603.224C2240.49 613.867 2234.69 621.479 2223.08 626.059C2235.47 628.37 2241.67 635.459 2241.67 647.323C2241.67 665.774 2231.92 675 2212.42 675H2173.88ZM2211.7 665.186C2222.87 665.186 2228.45 659.515 2228.45 648.174C2228.45 637.138 2220.97 631.62 2206.01 631.62H2200.77V623.703C2218.66 621.304 2227.6 614.848 2227.6 604.336C2227.6 595.612 2222.63 591.25 2212.68 591.25H2185.99V665.186H2211.7ZM2256.32 654.259C2256.32 640.17 2265.61 633.125 2284.2 633.125C2290.17 633.125 2296.15 633.561 2302.12 634.434V627.956C2302.12 620.061 2295.95 616.113 2283.61 616.113C2276.54 616.113 2269.3 617.204 2261.88 619.385V609.57C2269.3 607.389 2276.54 606.299 2283.61 606.299C2304.02 606.299 2314.23 613.409 2314.23 627.629V675H2307.42L2303.24 668.195C2296.39 672.732 2288.93 675 2280.86 675C2264.5 675 2256.32 668.086 2256.32 654.259ZM2284.2 642.939C2273.68 642.939 2268.43 646.647 2268.43 654.062C2268.43 661.478 2272.57 665.186 2280.86 665.186C2289.23 665.186 2296.32 662.961 2302.12 658.512V644.248C2296.15 643.376 2290.17 642.939 2284.2 642.939ZM2333.92 675V606.299H2346.03V665.186H2371.54V606.299H2383.65V665.186H2409.17V606.299H2421.27V675H2333.92ZM2469.3 606.299C2488.84 606.299 2498.61 615.961 2498.61 635.284C2498.61 638.032 2498.41 640.977 2498.02 644.117H2449.8C2449.8 658.163 2458 665.186 2474.4 665.186C2482.21 665.186 2489.14 664.313 2495.21 662.568V672.383C2489.14 674.128 2481.77 675 2473.09 675C2449.49 675 2437.69 663.288 2437.69 639.864C2437.69 617.487 2448.23 606.299 2469.3 606.299ZM2449.8 634.041H2486.96C2486.7 622.002 2480.81 615.982 2469.3 615.982C2457.08 615.982 2450.58 622.002 2449.8 634.041ZM2577.06 584.707C2585.78 582.09 2594.51 580.781 2603.23 580.781C2625.69 580.781 2636.93 589.287 2636.93 606.299C2636.93 616.593 2632.83 623.681 2624.63 627.563C2632.83 631.271 2636.93 638.359 2636.93 648.828C2636.93 666.712 2625.69 675.654 2603.23 675.654C2594.51 675.654 2585.78 674.346 2577.06 671.729V661.26C2585.78 664.313 2594.51 665.84 2603.23 665.84C2617.62 665.84 2624.82 660.169 2624.82 648.828C2624.82 637.923 2619.33 632.471 2608.33 632.471H2586.87V622.656H2608.14C2619.26 622.656 2624.82 617.204 2624.82 606.299C2624.82 595.83 2617.62 590.596 2603.23 590.596C2594.51 590.596 2585.78 592.122 2577.06 595.176V584.707ZM2673.24 665.186H2707.85V616.113H2683.64C2683.64 640.497 2680.18 656.854 2673.24 665.186ZM2643.54 699.863V665.186H2655.57C2666.22 665.186 2671.54 648.828 2671.54 616.113V606.299H2719.96V665.186H2732.06V699.863H2719.96V675H2655.57V699.863H2643.54ZM2743.51 640.649C2743.51 617.313 2754.85 605.645 2777.54 605.645C2800.22 605.645 2811.56 617.313 2811.56 640.649C2811.56 663.986 2800.22 675.654 2777.54 675.654C2754.94 675.654 2743.6 663.986 2743.51 640.649ZM2755.62 640.388C2755.62 657.356 2762.92 665.84 2777.54 665.84C2792.15 665.84 2799.45 657.356 2799.45 640.388C2799.45 623.769 2792.15 615.459 2777.54 615.459C2762.92 615.459 2755.62 623.769 2755.62 640.388ZM2840.02 660.998C2844.78 663.354 2850.07 664.531 2855.92 664.531C2871.49 664.531 2879.28 655.96 2879.28 638.817C2879.28 623.856 2871.54 616.375 2856.05 616.375C2849.94 616.375 2844.6 616.898 2840.02 617.945V660.998ZM2827.92 609.112C2837.03 607.237 2846.45 606.299 2856.18 606.299C2879.52 606.299 2891.19 617.182 2891.19 638.948C2891.19 662.983 2879.45 675 2855.99 675C2850.49 675 2845.17 673.91 2840.02 671.729V699.863H2827.92V609.112ZM2904.34 640.649C2904.34 617.313 2915.68 605.645 2938.36 605.645C2961.04 605.645 2972.38 617.313 2972.38 640.649C2972.38 663.986 2961.04 675.654 2938.36 675.654C2915.77 675.654 2904.43 663.986 2904.34 640.649ZM2916.44 640.388C2916.44 657.356 2923.75 665.84 2938.36 665.84C2952.97 665.84 2960.28 657.356 2960.28 640.388C2960.28 623.769 2952.97 615.459 2938.36 615.459C2923.75 615.459 2916.44 623.769 2916.44 640.388ZM3025.25 665.186C3032.06 665.186 3035.46 661.696 3035.46 654.717C3035.46 648.174 3030.16 644.902 3019.56 644.902H3014.33V636.985C3027.85 635.459 3034.61 630.9 3034.61 623.311C3034.61 618.512 3031.82 616.113 3026.23 616.113H3000.85V665.186H3025.25ZM2988.74 675V606.299H3027.35C3040.78 606.299 3047.5 612.035 3047.5 623.507C3047.5 630.617 3043.22 635.895 3034.67 639.341C3044.01 641.653 3048.68 646.713 3048.68 654.521C3048.68 668.174 3041.11 675 3025.97 675H2988.74ZM3077.14 606.299V664.989H3097.94C3105.71 664.989 3109.59 661.303 3109.59 653.932C3109.59 647.956 3105.62 644.968 3097.68 644.968H3086.04V635.153H3098.27C3113.97 635.153 3121.83 641.609 3121.83 654.521C3121.83 668.174 3114.24 675 3099.06 675H3065.03V606.299H3077.14ZM3169.79 606.299C3189.33 606.299 3199.1 615.961 3199.1 635.284C3199.1 638.032 3198.9 640.977 3198.51 644.117H3150.29C3150.29 658.163 3158.49 665.186 3174.89 665.186C3182.7 665.186 3189.63 664.313 3195.7 662.568V672.383C3189.63 674.128 3182.26 675 3173.58 675C3149.98 675 3138.18 663.288 3138.18 639.864C3138.18 617.487 3148.72 606.299 3169.79 606.299ZM3150.29 634.041H3187.45C3187.19 622.002 3181.3 615.982 3169.79 615.982C3157.57 615.982 3151.07 622.002 3150.29 634.041Z" fill="black"/>
<rect y="85" width="532" height="602" fill="#070707"/>
<path d="M280.477 151.421C294.183 152.718 305.852 155.867 315.483 160.868C325.3 165.869 331.968 169.388 335.487 171.425C339.192 173.463 342.248 174.481 344.656 174.481C347.249 174.481 349.379 173.926 351.046 172.814C352.713 171.703 354.195 170.407 355.491 168.925C356.788 167.443 357.899 165.869 358.825 164.202C359.751 162.349 360.677 160.682 361.604 159.201H387.164V289.504H367.16C363.085 285.244 358.455 275.983 353.269 261.721C348.082 247.273 343.637 235.79 339.933 227.27C336.413 218.749 331.968 210.785 326.597 203.376C314.743 186.891 299.369 177.167 280.477 174.204V151.421ZM224.077 552.611C213.149 547.61 205.462 544.091 201.017 542.053C196.571 539.831 191.941 538.719 187.125 538.719C182.494 538.719 177.308 543.813 171.566 554H145.728V416.751H164.898C168.973 421.011 172.585 426.846 175.734 434.254C179.068 441.663 182.494 449.72 186.014 458.426C189.718 466.946 193.7 475.744 197.96 484.82C202.221 493.896 207.407 502.323 213.519 510.103C227.225 527.328 244.636 537.052 265.751 539.275V562.057C249.082 560.575 235.19 557.427 224.077 552.611ZM288.812 538.997C308.815 536.589 324.281 528.439 335.209 514.548C344.841 502.138 349.657 487.969 349.657 472.04C349.657 455.925 346.786 443.052 341.044 433.421C335.302 423.604 327.708 414.991 318.262 407.583C309.001 399.988 298.35 393.135 286.311 387.023C274.272 380.911 261.954 374.891 249.359 368.964C236.95 362.852 224.725 356.554 212.686 350.071C200.831 343.403 190.274 335.809 181.013 327.289C160.083 308.026 149.618 284.596 149.618 256.998C149.618 229.029 159.157 205.136 178.234 185.317C198.609 164.572 225.003 153.088 257.417 150.866V173.926C234.449 176.889 218.983 188.651 211.019 209.21C208.425 215.878 207.129 224.213 207.129 234.215C207.129 244.217 210.092 253.571 216.02 262.276C221.947 270.982 229.726 278.761 239.357 285.614C248.989 292.467 259.917 298.765 272.142 304.507C284.551 310.249 297.146 316.083 309.927 322.01C322.892 327.937 335.487 334.327 347.712 341.181C360.122 348.034 371.142 355.998 380.774 365.074C402.26 385.634 413.002 410.453 413.002 439.533C413.002 471.021 401.611 498.434 378.829 521.771C354.936 546.591 324.93 560.112 288.812 562.335V538.997Z" fill="#FFFEFE"/>
</svg>
